<?xml version="1.0" encoding="UTF-8" standalone="no"?>
<!DOCTYPE svg PUBLIC "-//W3C//DTD SVG 1.1//EN" "http://www.w3.org/Graphics/SVG/1.1/DTD/svg11.dtd">
<!-- Created with Vectornator (http://vectornator.io/) -->
<svg height="100%" stroke-miterlimit="10" style="fill-rule:nonzero;clip-rule:evenodd;stroke-linecap:round;stroke-linejoin:round;" version="1.1" viewBox="0 0 200 60" width="100%" xml:space="preserve" xmlns="http://www.w3.org/2000/svg" xmlns:vectornator="http://vectornator.io" xmlns:xlink="http://www.w3.org/1999/xlink">
<defs>
<path d="M27.7344 8.23958C13.4375 8.23958 1.85417 19.8229 1.85417 34.1198C1.85417 48.4115 13.4375 60 27.7344 60C42.026 60 53.6146 48.4115 53.6146 34.1198C53.6146 19.8229 42.026 8.23958 27.7344 8.23958Z" id="Fill"/>
<path d="M27.7344 8.23958C13.4375 8.23958 1.85417 19.8229 1.85417 34.1198C1.85417 48.4115 13.4375 60 27.7344 60C42.026 60 53.6146 48.4115 53.6146 34.1198C53.6146 19.8229 42.026 8.23958 27.7344 8.23958Z" id="Fill_2"/>
</defs>
<clipPath id="ArtboardFrame">
<rect height="60" width="200" x="0" y="0"/>
</clipPath>
<g clip-path="url(#ArtboardFrame)" id="Adsız" vectornator:layerName="Adsız">
<g opacity="1" vectornator:layerName="rect">
<g opacity="1" vectornator:layerName="path">
<use fill="#22c55d" fill-rule="nonzero" opacity="1" stroke="none" vectornator:layerName="path" xlink:href="#Fill"/>
<clipPath clip-rule="nonzero" id="ClipPath">
<use xlink:href="#Fill"/>
</clipPath>
<g clip-path="url(#ClipPath)">
<use fill="#22c55d" fill-rule="nonzero" opacity="1" stroke="none" vectornator:layerName="path" xlink:href="#Fill_2"/>
<clipPath clip-rule="nonzero" id="ClipPath_2">
<use xlink:href="#Fill_2"/>
</clipPath>
<g clip-path="url(#ClipPath_2)">
<path d="M1.85417 8.23958L53.6146 8.23958L53.6146 60L1.85417 60L1.85417 8.23958Z" fill="#22c55d" fill-rule="nonzero" opacity="1" stroke="none" vectornator:layerName="path"/>
</g>
</g>
</g>
<g opacity="1" vectornator:layerName="path">
<path d="M30.7292 20.151C16.5677 28.3594 12.8542 39.4063 20.2135 53.4583C20.3073 53.6354 20.0625 53.7917 19.9375 53.6354C16.6927 49.5365 14.4271 45.3958 13.4896 41.1927C10.3802 27.3229 23.7344 17.4427 36.0104 15.2187C36.6198 15.1094 37.1042 15.6979 36.8802 16.2813C32.6979 27.2135 43.8698 43.8281 20.2969 47.599C17.8281 36.5104 20.5885 27.1302 30.7292 20.151" fill="#ffffff" fill-rule="evenodd" opacity="1" stroke="none" vectornator:layerName="path"/>
</g>
<g opacity="1" vectornator:layerName="path">
<path d="M61.2566 13.0686L70.4024 13.0686C72.5795 13.0686 74.5066 13.4853 76.1732 14.3186C77.8503 15.152 79.1524 16.329 80.0691 17.8395C80.9962 19.3551 81.4649 21.1207 81.4649 23.1311C81.4649 25.1311 80.9962 26.8915 80.0691 28.402C79.1524 29.9176 77.8503 31.0895 76.1732 31.9228C74.5066 32.7561 72.5795 33.1728 70.4024 33.1728L61.2566 33.1728L61.2566 13.0686ZM70.1732 29.3603C72.1732 29.3603 73.767 28.7978 74.9649 27.6728C76.1576 26.5478 76.7566 25.0374 76.7566 23.1311C76.7566 21.2145 76.1576 19.704 74.9649 18.5895C73.767 17.4645 72.1732 16.902 70.1732 16.902L65.9232 16.902L65.9232 29.3603L70.1732 29.3603Z" fill="#22c55d" fill-rule="nonzero" opacity="1" stroke="none" vectornator:layerName="path"/>
<path d="M106.067 33.527C103.968 33.527 102.078 33.079 100.401 32.1728C98.7341 31.2717 97.4268 30.0374 96.4841 28.4645C95.5362 26.8811 95.0674 25.1051 95.0674 23.1311C95.0674 21.1624 95.5362 19.3811 96.4841 17.7978C97.4268 16.2145 98.7341 14.9801 100.401 14.0895C102.078 13.1884 103.968 12.7353 106.067 12.7353C108.151 12.7353 110.015 13.1884 111.672 14.0895C113.338 14.9801 114.651 16.2145 115.609 17.7978C116.567 19.3811 117.047 21.1624 117.047 23.1311C117.047 25.1051 116.567 26.8811 115.609 28.4645C114.651 30.0374 113.338 31.2717 111.672 32.1728C110.015 33.079 108.151 33.527 106.067 33.527ZM106.067 29.5478C107.245 29.5478 108.317 29.277 109.276 28.7353C110.234 28.1936 110.984 27.4384 111.526 26.4645C112.067 25.4801 112.338 24.3707 112.338 23.1311C112.338 21.8811 112.067 20.7717 111.526 19.7978C110.984 18.829 110.234 18.0686 109.276 17.527C108.317 16.9749 107.245 16.6936 106.067 16.6936C104.87 16.6936 103.797 16.9749 102.838 17.527C101.88 18.0686 101.13 18.829 100.588 19.7978C100.047 20.7717 99.7758 21.8811 99.7758 23.1311C99.7758 24.3707 100.047 25.4801 100.588 26.4645C101.13 27.4384 101.88 28.1936 102.838 28.7353C103.797 29.277 104.87 29.5478 106.067 29.5478Z" fill="#22c55d" fill-rule="nonzero" opacity="1" stroke="none" vectornator:layerName="path"/>
<path d="M145.479 22.8186L149.729 22.8186L149.729 30.9645C148.645 31.7874 147.38 32.4176 145.937 32.8603C144.505 33.303 143.062 33.527 141.604 33.527C139.52 33.527 137.645 33.0842 135.979 32.1936C134.312 31.2926 133.005 30.0582 132.062 28.4853C131.114 26.902 130.645 25.1207 130.645 23.1311C130.645 21.1311 131.114 19.3499 132.062 17.777C133.005 16.1936 134.317 14.9592 135.999 14.0686C137.692 13.1832 139.588 12.7353 141.687 12.7353C143.447 12.7353 145.046 13.0374 146.479 13.6311C147.921 14.2145 149.13 15.079 150.104 16.2145L147.124 18.9645C145.676 17.454 143.942 16.6936 141.916 16.6936C140.635 16.6936 139.499 16.9645 138.499 17.5061C137.51 18.0374 136.739 18.7926 136.187 19.777C135.63 20.7509 135.354 21.8707 135.354 23.1311C135.354 24.3707 135.63 25.4801 136.187 26.4645C136.739 27.4384 137.51 28.1936 138.499 28.7353C139.484 29.277 140.609 29.5478 141.874 29.5478C143.208 29.5478 144.406 29.2665 145.479 28.6936L145.479 22.8186Z" fill="#22c55d" fill-rule="nonzero" opacity="1" stroke="none" vectornator:layerName="path"/>
<path d="M178.627 28.8603L169.293 28.8603L167.502 33.1728L162.752 33.1728L171.71 13.0686L176.293 13.0686L185.273 33.1728L180.398 33.1728L178.627 28.8603ZM177.148 25.3395L173.96 17.6311L170.773 25.3395L177.148 25.3395Z" fill="#22c55d" fill-rule="nonzero" opacity="1" stroke="none" vectornator:layerName="path"/>
</g>
<g opacity="1" vectornator:layerName="rect">
<path d="M61.9222 38.7013L67.1306 38.7013C68.3649 38.7013 69.4639 38.9461 70.4222 39.4305C71.3806 39.9044 72.1202 40.5711 72.6514 41.4305C73.1774 42.2951 73.4431 43.2951 73.4431 44.4305C73.4431 45.5867 73.1774 46.5919 72.6514 47.4513C72.1202 48.3159 71.3806 48.9826 70.4222 49.4513C69.4639 49.9253 68.3649 50.1596 67.1306 50.1596L61.9222 50.1596L61.9222 38.7013ZM67.0056 47.993C68.141 47.993 69.0524 47.6753 69.7347 47.0346C70.4118 46.3992 70.7556 45.5294 70.7556 44.4305C70.7556 43.3471 70.4118 42.4878 69.7347 41.8471C69.0524 41.2117 68.141 40.8888 67.0056 40.8888L64.5681 40.8888L64.5681 47.993L67.0056 47.993Z" fill="#22c55d" fill-rule="nonzero" opacity="1" stroke="none" vectornator:layerName="path"/>
<path d="M82.9505 47.7013L77.638 47.7013L76.6172 50.1596L73.9088 50.1596L79.013 38.7013L81.6172 38.7013L86.7422 50.1596L83.9713 50.1596L82.9505 47.7013ZM82.1172 45.7013L80.3047 41.3055L78.4922 45.7013L82.1172 45.7013Z" fill="#22c55d" fill-rule="nonzero" opacity="1" stroke="none" vectornator:layerName="path"/>
<path d="M98.5781 38.7013L98.5781 50.1596L96.4114 50.1596L90.7031 43.2013L90.7031 50.1596L88.0781 50.1596L88.0781 38.7013L90.2656 38.7013L95.9739 45.6596L95.9739 38.7013L98.5781 38.7013Z" fill="#22c55d" fill-rule="nonzero" opacity="1" stroke="none" vectornator:layerName="path"/>
<path d="M101.434 38.7013L104.08 38.7013L104.08 50.1596L101.434 50.1596L101.434 38.7013Z" fill="#22c55d" fill-rule="nonzero" opacity="1" stroke="none" vectornator:layerName="path"/>
<path d="M110.714 50.3471C109.808 50.3471 108.933 50.2274 108.089 49.993C107.24 49.743 106.558 49.4253 106.047 49.0346L106.943 47.0346C107.427 47.3992 108.011 47.6909 108.693 47.9096C109.37 48.118 110.047 48.2221 110.714 48.2221C111.474 48.2221 112.032 48.1128 112.38 47.8888C112.74 47.6701 112.922 47.368 112.922 46.993C112.922 46.7326 112.818 46.5086 112.61 46.3263C112.401 46.1492 112.13 46.0034 111.797 45.8888C111.464 45.7794 111.011 45.6596 110.443 45.5346C109.568 45.3263 108.849 45.118 108.297 44.9096C107.74 44.7013 107.261 44.368 106.86 43.9096C106.469 43.4513 106.276 42.8419 106.276 42.0763C106.276 41.4096 106.453 40.8159 106.818 40.2846C107.177 39.743 107.719 39.3159 108.443 38.993C109.162 38.6753 110.052 38.5138 111.11 38.5138C111.828 38.5138 112.537 38.6076 113.235 38.7846C113.943 38.9513 114.552 39.2013 115.068 39.5346L114.255 41.5346C113.198 40.9409 112.141 40.6388 111.089 40.6388C110.339 40.6388 109.782 40.7638 109.422 41.0138C109.073 41.2534 108.901 41.5659 108.901 41.9513C108.901 42.3419 109.099 42.6336 109.505 42.8263C109.922 43.0242 110.552 43.2117 111.401 43.3888C112.261 43.5971 112.969 43.8055 113.526 44.0138C114.094 44.2221 114.573 44.5503 114.964 44.993C115.365 45.4409 115.568 46.0451 115.568 46.8055C115.568 47.4617 115.38 48.0555 115.005 48.5971C114.641 49.1388 114.094 49.5711 113.36 49.8888C112.636 50.1909 111.755 50.3471 110.714 50.3471ZM110.38 53.9513C110.089 53.9513 109.802 53.9149 109.526 53.8471C109.261 53.7899 109.037 53.7117 108.86 53.618L109.235 52.5138C109.594 52.6805 109.948 52.7638 110.297 52.7638C110.865 52.7638 111.151 52.5867 111.151 52.243C111.151 51.9201 110.886 51.7638 110.36 51.7638L109.797 51.7638L110.235 50.0346L111.589 50.0346L111.36 50.9721C111.828 51.0242 112.183 51.1805 112.422 51.4305C112.657 51.6805 112.776 51.9774 112.776 52.3263C112.776 52.8367 112.552 53.2326 112.11 53.5138C111.677 53.8055 111.099 53.9513 110.38 53.9513Z" fill="#22c55d" fill-rule="nonzero" opacity="1" stroke="none" vectornator:layerName="path"/>
<path d="M127.936 50.1596L127.916 43.2846L124.561 48.9513L123.353 48.9513L119.999 43.4305L119.999 50.1596L117.52 50.1596L117.52 38.7013L119.707 38.7013L123.999 45.8263L128.228 38.7013L130.395 38.7013L130.436 50.1596L127.936 50.1596Z" fill="#22c55d" fill-rule="nonzero" opacity="1" stroke="none" vectornator:layerName="path"/>
<path d="M140.82 47.7013L135.508 47.7013L134.487 50.1596L131.779 50.1596L136.883 38.7013L139.487 38.7013L144.612 50.1596L141.841 50.1596L140.82 47.7013ZM139.987 45.7013L138.174 41.3055L136.362 45.7013L139.987 45.7013Z" fill="#22c55d" fill-rule="nonzero" opacity="1" stroke="none" vectornator:layerName="path"/>
<path d="M156.448 38.7013L156.448 50.1596L154.281 50.1596L148.573 43.2013L148.573 50.1596L145.948 50.1596L145.948 38.7013L148.135 38.7013L153.844 45.6596L153.844 38.7013L156.448 38.7013Z" fill="#22c55d" fill-rule="nonzero" opacity="1" stroke="none" vectornator:layerName="path"/>
<path d="M159.304 38.7013L161.95 38.7013L161.95 47.993L167.7 47.993L167.7 50.1596L159.304 50.1596L159.304 38.7013Z" fill="#22c55d" fill-rule="nonzero" opacity="1" stroke="none" vectornator:layerName="path"/>
<path d="M169.325 38.7013L171.971 38.7013L171.971 50.1596L169.325 50.1596L169.325 38.7013Z" fill="#22c55d" fill-rule="nonzero" opacity="1" stroke="none" vectornator:layerName="path"/>
<g opacity="1" vectornator:layerName="path">
<path d="M179 45.6596L177.48 47.2638L177.48 50.1596L174.834 50.1596L174.834 38.7013L177.48 38.7013L177.48 44.0555L182.542 38.7013L185.48 38.7013L180.75 43.8055L185.771 50.1596L182.667 50.1596L179 45.6596Z" fill="#22c55d" fill-rule="nonzero" opacity="1" stroke="none" vectornator:layerName="path"/>
</g>
</g>
<path d="M135.271 9.875L145.943 9.875" fill="#22c55d" fill-rule="nonzero" opacity="0" stroke="none" vectornator:layerName="path"/>
<path d="M136.572 8.23958L145.334 8.23958L145.334 10.4172L136.572 10.4172L136.572 8.23958Z" fill="#22c55d" fill-rule="nonzero" opacity="1" stroke="none" vectornator:layerName="Dikdörtgen 1"/>
</g>
</g>
</svg>
