<?xml version="1.0" encoding="UTF-8" standalone="no"?>
<!DOCTYPE svg PUBLIC "-//W3C//DTD SVG 1.1//EN" "http://www.w3.org/Graphics/SVG/1.1/DTD/svg11.dtd">
<!-- Created with Vectornator (http://vectornator.io/) -->
<svg height="100%" stroke-miterlimit="10" style="fill-rule:nonzero;clip-rule:evenodd;stroke-linecap:round;stroke-linejoin:round;" version="1.1" viewBox="0 0 200 60" width="100%" xml:space="preserve" xmlns="http://www.w3.org/2000/svg" xmlns:vectornator="http://vectornator.io" xmlns:xlink="http://www.w3.org/1999/xlink">
<defs>
<path d="M27.7344 4.11979C13.4375 4.11979 1.85417 15.7031 1.85417 30C1.85417 44.2917 13.4375 55.8802 27.7344 55.8802C42.026 55.8802 53.6146 44.2917 53.6146 30C53.6146 15.7031 42.026 4.11979 27.7344 4.11979Z" id="Fill"/>
</defs>
<clipPath id="ArtboardFrame">
<rect height="60" width="200" x="0" y="0"/>
</clipPath>
<g clip-path="url(#ArtboardFrame)" id="Adsız" vectornator:layerName="Adsız">
<g opacity="1" vectornator:layerName="rect">
<g opacity="1" vectornator:layerName="path">
<use fill="#135650" fill-opacity="0.121449" fill-rule="nonzero" opacity="0" stroke="#ffffff" stroke-linecap="butt" stroke-linejoin="miter" stroke-width="5" vectornator:layerName="path" xlink:href="#Fill"/>
<clipPath clip-rule="nonzero" id="ClipPath">
<use xlink:href="#Fill"/>
</clipPath>
<g clip-path="url(#ClipPath)">
<path d="M27.7344 4.11979C13.4375 4.11979 1.85417 15.7031 1.85417 30C1.85417 44.2917 13.4375 55.8802 27.7344 55.8802C42.026 55.8802 53.6146 44.2917 53.6146 30C53.6146 15.7031 42.026 4.11979 27.7344 4.11979Z" fill="none" opacity="1" stroke="#ffffff" stroke-linecap="butt" stroke-linejoin="miter" stroke-width="5" vectornator:layerName="path"/>
</g>
</g>
<g opacity="1" vectornator:layerName="path">
<path d="M30.7292 16.0312C16.5677 24.2396 12.8542 35.2865 20.2135 49.3385C20.3073 49.5156 20.0625 49.6719 19.9375 49.5156C16.6927 45.4167 14.4271 41.276 13.4896 37.0729C10.3802 23.2031 23.7344 13.3229 36.0104 11.099C36.6198 10.9896 37.1042 11.5781 36.8802 12.1615C32.6979 23.0937 43.8698 39.7083 20.2969 43.4792C17.8281 32.3906 20.5885 23.0104 30.7292 16.0312" fill="#ffffff" fill-rule="evenodd" opacity="1" stroke="none" vectornator:layerName="path"/>
</g>
<g opacity="1" vectornator:layerName="path">
<path d="M67.4328 9.72532L76.5786 9.72532C78.7557 9.72532 80.6828 10.142 82.3495 10.9753C84.0266 11.8087 85.3286 12.9857 86.2453 14.4962C87.1724 16.0118 87.6411 17.7774 87.6411 19.7878C87.6411 21.7878 87.1724 23.5482 86.2453 25.0587C85.3286 26.5743 84.0266 27.7462 82.3495 28.5795C80.6828 29.4128 78.7557 29.8295 76.5786 29.8295L67.4328 29.8295L67.4328 9.72532ZM76.3495 26.017C78.3495 26.017 79.9432 25.4545 81.1411 24.3295C82.3339 23.2045 82.9328 21.6941 82.9328 19.7878C82.9328 17.8712 82.3339 16.3607 81.1411 15.2462C79.9432 14.1212 78.3495 13.5587 76.3495 13.5587L72.0995 13.5587L72.0995 26.017L76.3495 26.017Z" fill="#ffffff" fill-rule="nonzero" opacity="1" stroke="none" vectornator:layerName="path"/>
<path d="M112.244 30.1837C110.145 30.1837 108.254 29.7357 106.577 28.8295C104.91 27.9284 103.603 26.6941 102.66 25.1212C101.712 23.5378 101.244 21.7618 101.244 19.7878C101.244 17.8191 101.712 16.0378 102.66 14.4545C103.603 12.8712 104.91 11.6368 106.577 10.7462C108.254 9.84511 110.145 9.39199 112.244 9.39199C114.327 9.39199 116.192 9.84511 117.848 10.7462C119.515 11.6368 120.827 12.8712 121.785 14.4545C122.744 16.0378 123.223 17.8191 123.223 19.7878C123.223 21.7618 122.744 23.5378 121.785 25.1212C120.827 26.6941 119.515 27.9284 117.848 28.8295C116.192 29.7357 114.327 30.1837 112.244 30.1837ZM112.244 26.2045C113.421 26.2045 114.494 25.9337 115.452 25.392C116.41 24.8503 117.16 24.0951 117.702 23.1212C118.244 22.1368 118.515 21.0274 118.515 19.7878C118.515 18.5378 118.244 17.4284 117.702 16.4545C117.16 15.4857 116.41 14.7253 115.452 14.1837C114.494 13.6316 113.421 13.3503 112.244 13.3503C111.046 13.3503 109.973 13.6316 109.015 14.1837C108.056 14.7253 107.306 15.4857 106.765 16.4545C106.223 17.4284 105.952 18.5378 105.952 19.7878C105.952 21.0274 106.223 22.1368 106.765 23.1212C107.306 24.0951 108.056 24.8503 109.015 25.392C109.973 25.9337 111.046 26.2045 112.244 26.2045Z" fill="#ffffff" fill-rule="nonzero" opacity="1" stroke="none" vectornator:layerName="path"/>
<path d="M151.655 19.4753L155.905 19.4753L155.905 27.6212C154.821 28.4441 153.556 29.0743 152.113 29.517C150.681 29.9597 149.238 30.1837 147.78 30.1837C145.696 30.1837 143.821 29.7409 142.155 28.8503C140.488 27.9493 139.181 26.7149 138.238 25.142C137.29 23.5587 136.821 21.7774 136.821 19.7878C136.821 17.7878 137.29 16.0066 138.238 14.4337C139.181 12.8503 140.493 11.6159 142.176 10.7253C143.868 9.8399 145.764 9.39199 147.863 9.39199C149.624 9.39199 151.222 9.69407 152.655 10.2878C154.097 10.8712 155.306 11.7357 156.28 12.8712L153.301 15.6212C151.853 14.1107 150.118 13.3503 148.092 13.3503C146.811 13.3503 145.676 13.6212 144.676 14.1628C143.686 14.6941 142.915 15.4493 142.363 16.4337C141.806 17.4076 141.53 18.5274 141.53 19.7878C141.53 21.0274 141.806 22.1368 142.363 23.1212C142.915 24.0951 143.686 24.8503 144.676 25.392C145.66 25.9337 146.785 26.2045 148.051 26.2045C149.384 26.2045 150.582 25.9232 151.655 25.3503L151.655 19.4753Z" fill="#ffffff" fill-rule="nonzero" opacity="1" stroke="none" vectornator:layerName="path"/>
<path d="M184.803 25.517L175.47 25.517L173.678 29.8295L168.928 29.8295L177.886 9.72532L182.47 9.72532L191.449 29.8295L186.574 29.8295L184.803 25.517ZM183.324 21.9962L180.136 14.2878L176.949 21.9962L183.324 21.9962Z" fill="#ffffff" fill-rule="nonzero" opacity="1" stroke="none" vectornator:layerName="path"/>
</g>
<g opacity="1" vectornator:layerName="rect">
<path d="M68.0985 35.358L73.3068 35.358C74.5412 35.358 75.6401 35.6028 76.5985 36.0872C77.5568 36.5611 78.2964 37.2278 78.8276 38.0872C79.3537 38.9518 79.6193 39.9518 79.6193 41.0872C79.6193 42.2434 79.3537 43.2486 78.8276 44.108C78.2964 44.9726 77.5568 45.6393 76.5985 46.108C75.6401 46.582 74.5412 46.8163 73.3068 46.8163L68.0985 46.8163L68.0985 35.358ZM73.1818 44.6497C74.3172 44.6497 75.2287 44.332 75.911 43.6913C76.5881 43.0559 76.9318 42.1861 76.9318 41.0872C76.9318 40.0038 76.5881 39.1445 75.911 38.5038C75.2287 37.8684 74.3172 37.5455 73.1818 37.5455L70.7443 37.5455L70.7443 44.6497L73.1818 44.6497Z" fill="#ffffff" fill-rule="nonzero" opacity="1" stroke="none" vectornator:layerName="path"/>
<path d="M89.1267 44.358L83.8142 44.358L82.7934 46.8163L80.0851 46.8163L85.1892 35.358L87.7934 35.358L92.9184 46.8163L90.1476 46.8163L89.1267 44.358ZM88.2934 42.358L86.4809 37.9622L84.6684 42.358L88.2934 42.358Z" fill="#ffffff" fill-rule="nonzero" opacity="1" stroke="none" vectornator:layerName="path"/>
<path d="M104.754 35.358L104.754 46.8163L102.588 46.8163L96.8793 39.858L96.8793 46.8163L94.2543 46.8163L94.2543 35.358L96.4418 35.358L102.15 42.3163L102.15 35.358L104.754 35.358Z" fill="#ffffff" fill-rule="nonzero" opacity="1" stroke="none" vectornator:layerName="path"/>
<path d="M107.61 35.358L110.256 35.358L110.256 46.8163L107.61 46.8163L107.61 35.358Z" fill="#ffffff" fill-rule="nonzero" opacity="1" stroke="none" vectornator:layerName="path"/>
<path d="M116.89 47.0038C115.984 47.0038 115.109 46.8841 114.265 46.6497C113.416 46.3997 112.734 46.082 112.223 45.6913L113.119 43.6913C113.604 44.0559 114.187 44.3476 114.869 44.5663C115.546 44.7747 116.223 44.8788 116.89 44.8788C117.65 44.8788 118.208 44.7695 118.557 44.5455C118.916 44.3268 119.098 44.0247 119.098 43.6497C119.098 43.3893 118.994 43.1653 118.786 42.983C118.578 42.8059 118.307 42.6601 117.973 42.5455C117.64 42.4361 117.187 42.3163 116.619 42.1913C115.744 41.983 115.025 41.7747 114.473 41.5663C113.916 41.358 113.437 41.0247 113.036 40.5663C112.645 40.108 112.453 39.4986 112.453 38.733C112.453 38.0663 112.63 37.4726 112.994 36.9413C113.354 36.3997 113.895 35.9726 114.619 35.6497C115.338 35.332 116.229 35.1705 117.286 35.1705C118.005 35.1705 118.713 35.2643 119.411 35.4413C120.119 35.608 120.729 35.858 121.244 36.1913L120.432 38.1913C119.374 37.5976 118.317 37.2955 117.265 37.2955C116.515 37.2955 115.958 37.4205 115.598 37.6705C115.249 37.9101 115.078 38.2226 115.078 38.608C115.078 38.9986 115.275 39.2903 115.682 39.483C116.098 39.6809 116.729 39.8684 117.578 40.0455C118.437 40.2538 119.145 40.4622 119.703 40.6705C120.27 40.8788 120.749 41.207 121.14 41.6497C121.541 42.0976 121.744 42.7018 121.744 43.4622C121.744 44.1184 121.557 44.7122 121.182 45.2538C120.817 45.7955 120.27 46.2278 119.536 46.5455C118.812 46.8476 117.932 47.0038 116.89 47.0038ZM116.557 50.608C116.265 50.608 115.979 50.5716 115.703 50.5038C115.437 50.4466 115.213 50.3684 115.036 50.2747L115.411 49.1705C115.77 49.3372 116.124 49.4205 116.473 49.4205C117.041 49.4205 117.328 49.2434 117.328 48.8997C117.328 48.5768 117.062 48.4205 116.536 48.4205L115.973 48.4205L116.411 46.6913L117.765 46.6913L117.536 47.6288C118.005 47.6809 118.359 47.8372 118.598 48.0872C118.833 48.3372 118.953 48.6341 118.953 48.983C118.953 49.4934 118.729 49.8893 118.286 50.1705C117.854 50.4622 117.275 50.608 116.557 50.608Z" fill="#ffffff" fill-rule="nonzero" opacity="1" stroke="none" vectornator:layerName="path"/>
<path d="M134.113 46.8163L134.092 39.9413L130.738 45.608L129.529 45.608L126.175 40.0872L126.175 46.8163L123.696 46.8163L123.696 35.358L125.884 35.358L130.175 42.483L134.404 35.358L136.571 35.358L136.613 46.8163L134.113 46.8163Z" fill="#ffffff" fill-rule="nonzero" opacity="1" stroke="none" vectornator:layerName="path"/>
<path d="M146.997 44.358L141.684 44.358L140.663 46.8163L137.955 46.8163L143.059 35.358L145.663 35.358L150.788 46.8163L148.017 46.8163L146.997 44.358ZM146.163 42.358L144.351 37.9622L142.538 42.358L146.163 42.358Z" fill="#ffffff" fill-rule="nonzero" opacity="1" stroke="none" vectornator:layerName="path"/>
<path d="M162.624 35.358L162.624 46.8163L160.457 46.8163L154.749 39.858L154.749 46.8163L152.124 46.8163L152.124 35.358L154.312 35.358L160.02 42.3163L160.02 35.358L162.624 35.358Z" fill="#ffffff" fill-rule="nonzero" opacity="1" stroke="none" vectornator:layerName="path"/>
<path d="M165.48 35.358L168.126 35.358L168.126 44.6497L173.876 44.6497L173.876 46.8163L165.48 46.8163L165.48 35.358Z" fill="#ffffff" fill-rule="nonzero" opacity="1" stroke="none" vectornator:layerName="path"/>
<path d="M175.501 35.358L178.147 35.358L178.147 46.8163L175.501 46.8163L175.501 35.358Z" fill="#ffffff" fill-rule="nonzero" opacity="1" stroke="none" vectornator:layerName="path"/>
<g opacity="1" vectornator:layerName="path">
<path d="M185.177 42.3163L183.656 43.9205L183.656 46.8163L181.01 46.8163L181.01 35.358L183.656 35.358L183.656 40.7122L188.718 35.358L191.656 35.358L186.927 40.4622L191.948 46.8163L188.843 46.8163L185.177 42.3163Z" fill="#ffffff" fill-rule="nonzero" opacity="1" stroke="none" vectornator:layerName="path"/>
</g>
</g>
<path d="M135.271 9.875L145.943 9.875" fill="#ffffff" fill-rule="nonzero" opacity="0" stroke="none" vectornator:layerName="path"/>
<path d="M142.781 4.11979L151.542 4.11979L151.542 6.29742L142.781 6.29742L142.781 4.11979Z" fill="#ffffff" fill-rule="nonzero" opacity="1" stroke="none" vectornator:layerName="Dikdörtgen 1"/>
</g>
</g>
<g id="Katman-1" vectornator:layerName="Katman 1"/>
</svg>
